<?xml version="1.0" standalone="no"?>
<!DOCTYPE svg PUBLIC "-//W3C//DTD SVG 20010904//EN"
 "http://www.w3.org/TR/2001/REC-SVG-20010904/DTD/svg10.dtd">
<svg version="1.0" xmlns="http://www.w3.org/2000/svg"
 width="445.000000pt" height="445.000000pt" viewBox="0 0 445.000000 445.000000"
 preserveAspectRatio="xMidYMid meet">

<g transform="translate(0.000000,445.000000) scale(0.100000,-0.100000)"
fill="#000000" stroke="none">
<path d="M0 2225 l0 -2225 2225 0 2225 0 0 2225 0 2225 -2225 0 -2225 0 0
-2225z m901 1038 c129 -44 265 -156 351 -288 25 -39 184 -371 353 -739 l308
-668 27 58 c14 33 120 272 235 531 153 345 214 473 226 473 9 0 20 7 23 16 9
23 7 36 -4 29 -15 -9 -12 12 5 28 8 8 12 17 9 19 -4 4 122 297 133 308 2 2 2
-22 0 -55 -2 -39 -8 -59 -15 -57 -17 3 -15 -18 2 -24 17 -7 20 -104 4 -104 -7
0 -7 -4 -1 -12 14 -18 16 -238 2 -254 -7 -9 -5 -15 8 -23 10 -6 13 -11 6 -11
-7 0 -10 -11 -7 -29 3 -16 1 -32 -4 -35 -12 -7 -25 20 -29 59 -1 17 -8 65 -15
108 l-13 78 -39 -80 c-21 -45 -36 -84 -32 -88 3 -3 6 1 6 11 0 9 4 14 10 11
17 -10 11 -35 -8 -35 -15 0 -66 -107 -256 -537 -131 -296 -248 -574 -261 -618
-13 -45 -28 -80 -35 -80 -7 0 -155 309 -328 688 -174 378 -319 687 -322 687
-10 0 -114 -1224 -106 -1253 8 -32 59 -67 99 -67 15 0 27 -4 27 -10 0 -6 -87
-10 -240 -10 -207 0 -240 2 -240 15 0 11 12 15 48 15 30 0 61 8 87 23 76 42
75 37 159 773 42 363 76 673 76 689 0 62 -145 268 -241 342 -86 67 -157 94
-255 101 -85 5 -105 18 -53 34 46 14 241 2 300 -19z m1428 -115 c9 -16 9 -19
1 -11 -7 6 -19 9 -26 6 -10 -4 -12 0 -8 11 8 22 17 20 33 -6z m1315 -43 c0 -5
-22 -13 -47 -17 -63 -9 -113 -42 -137 -89 -19 -37 -20 -62 -20 -832 l0 -794
23 -33 c34 -51 72 -74 130 -80 29 -3 52 -9 52 -15 0 -6 -108 -11 -298 -13
-237 -2 -298 0 -295 10 3 7 27 15 54 18 62 6 106 37 133 93 21 43 21 53 21
820 0 523 -3 785 -11 804 -24 65 -97 113 -171 113 -18 0 -28 5 -28 15 0 13 37
15 298 13 190 -2 297 -7 296 -13z m-1224 -84 c0 -10 -30 -24 -37 -17 -3 3 -2
9 2 15 8 13 35 15 35 2z m40 -26 c0 -8 -4 -15 -10 -15 -5 0 -10 7 -10 15 0 8
5 15 10 15 6 0 10 -7 10 -15z m-33 -11 c-3 -3 -12 -4 -19 -1 -8 3 -5 6 6 6 11
1 17 -2 13 -5z m-117 -117 c0 -8 -3 -16 -6 -20 -8 -8 -33 16 -27 26 7 12 33 8
33 -6z m25 -77 c3 -5 2 -10 -4 -10 -5 0 -13 5 -16 10 -3 6 -2 10 4 10 5 0 13
-4 16 -10z m30 -50 c-3 -5 -10 -10 -16 -10 -5 0 -9 5 -9 10 0 6 7 10 16 10 8
0 12 -4 9 -10z m-25 -54 c0 -2 3 -11 6 -20 4 -10 0 -14 -14 -13 -23 1 -27 37
-5 37 7 0 13 -2 13 -4z m260 -12 c0 -8 -4 -12 -10 -9 -5 3 -10 10 -10 16 0 5
5 9 10 9 6 0 10 -7 10 -16z m23 -174 c-3 -11 -9 -20 -14 -20 -14 0 -11 28 4
33 6 3 13 6 14 6 0 1 -1 -8 -4 -19z m2 -50 c3 -5 2 -10 -4 -10 -5 0 -13 5 -16
10 -3 6 -2 10 4 10 5 0 13 -4 16 -10z m19 -29 c3 -5 -1 -11 -9 -15 -9 -3 -15
0 -15 9 0 16 16 20 24 6z m3 -123 c-3 -7 -5 -2 -5 12 0 14 2 19 5 13 2 -7 2
-19 0 -25z m-27 -5 c0 -5 -5 -15 -11 -23 -9 -13 -10 -13 -6 2 3 9 1 19 -6 22
-7 2 -4 5 6 5 9 1 17 -2 17 -6z m-30 -28 c0 -8 -4 -15 -10 -15 -5 0 -10 7 -10
15 0 8 5 15 10 15 6 0 10 -7 10 -15z m-25 -35 c3 -5 1 -10 -4 -10 -6 0 -11 5
-11 10 0 6 2 10 4 10 3 0 8 -4 11 -10z m175 -4 c0 -3 -4 -8 -10 -11 -5 -3 -10
-1 -10 4 0 6 5 11 10 11 6 0 10 -2 10 -4z m-180 -51 c0 -25 -18 -25 -22 -1 -4
17 -1 23 9 19 7 -3 13 -11 13 -18z m167 -27 c-3 -8 -6 -5 -6 6 -1 11 2 17 5
13 3 -3 4 -12 1 -19z m-132 -39 c12 -19 -5 -23 -22 -6 -16 16 -16 17 -1 17 9
0 20 -5 23 -11z m171 -48 c-12 -19 -24 -12 -19 10 4 13 9 17 15 11 6 -6 7 -15
4 -21z m-45 -154 c-10 -9 -11 -8 -5 6 3 10 9 15 12 12 3 -3 0 -11 -7 -18z
m-31 -107 c0 -11 -2 -20 -4 -20 -2 0 -6 9 -9 20 -3 11 -1 20 4 20 5 0 9 -9 9
-20z m60 -126 c12 -31 12 -34 1 -34 -5 0 -11 8 -15 18 -3 9 -9 23 -12 30 -3 6
-1 12 5 12 7 0 16 -12 21 -26z m12 -117 c-8 -17 -35 21 -28 39 6 16 8 16 20
-6 7 -14 11 -29 8 -33z m45 -159 c-3 -8 -6 -5 -6 6 -1 11 2 17 5 13 3 -3 4
-12 1 -19z m31 -64 c-10 -10 -28 6 -28 24 0 15 1 15 17 -1 9 -9 14 -19 11 -23z
m-73 16 c3 -5 1 -10 -4 -10 -6 0 -11 5 -11 10 0 6 2 10 4 10 3 0 8 -4 11 -10z
m145 -40 c0 -5 -5 -10 -11 -10 -5 0 -7 5 -4 10 3 6 8 10 11 10 2 0 4 -4 4 -10z
m-73 -61 c1 -12 1 -20 0 -18 -2 2 -9 12 -16 22 -11 14 -11 17 1 17 7 0 14 -10
15 -21z m213 -54 c0 -8 -4 -15 -9 -15 -5 0 -14 7 -21 15 -10 13 -9 15 9 15 12
0 21 -6 21 -15z m-185 -14 c3 -5 1 -12 -5 -16 -5 -3 -10 1 -10 9 0 18 6 21 15
7z m-35 -52 c0 -6 -4 -7 -10 -4 -5 3 -10 11 -10 16 0 6 5 7 10 4 6 -3 10 -11
10 -16z m210 1 c0 -5 -4 -10 -10 -10 -5 0 -10 5 -10 10 0 6 5 10 10 10 6 0 10
-4 10 -10z m37 -36 c-3 -3 -12 -4 -19 -1 -8 3 -5 6 6 6 11 1 17 -2 13 -5z m38
-54 c3 -5 1 -10 -4 -10 -6 0 -11 5 -11 10 0 6 2 10 4 10 3 0 8 -4 11 -10z
m-92 -139 c-9 -11 -21 -17 -26 -14 -6 3 -2 12 8 20 27 19 37 16 18 -6z m42
-11 c3 -5 -1 -10 -10 -10 -9 0 -13 5 -10 10 3 6 8 10 10 10 2 0 7 -4 10 -10z
m105 -100 c0 -13 -11 -13 -30 0 -12 8 -11 10 8 10 12 0 22 -4 22 -10z"/>
<path d="M2541 2594 c0 -11 3 -14 6 -6 3 7 2 16 -1 19 -3 4 -6 -2 -5 -13z"/>
<path d="M2552 2550 c0 -14 2 -19 5 -12 2 6 2 18 0 25 -3 6 -5 1 -5 -13z"/>
</g>
</svg>
